<svg width="18" height="17" viewBox="0 0 18 17" fill="none" xmlns="http://www.w3.org/2000/svg">
<rect width="18" height="17" fill="#E5E5E5"/>
<g clip-path="url(#clip0)">
<rect width="375" height="811" transform="translate(-180 -752)" fill="#F9FAFC"/>
<rect x="-180" y="-619" width="375" height="679" fill="white"/>
<path d="M-41.8057 12H-40.8757V8.71H-38.0757V7.93H-40.8757V5.45H-37.5757V4.66H-41.8057V12ZM-36.4927 12H-35.5827V8.51C-35.2227 7.58 -34.6627 7.26 -34.2127 7.26C-33.9927 7.26 -33.8627 7.28 -33.6827 7.35L-33.5127 6.55C-33.6827 6.46 -33.8527 6.43 -34.0927 6.43C-34.7027 6.43 -35.2527 6.87 -35.6327 7.56H-35.6627L-35.7427 6.57H-36.4927V12ZM-30.4332 12.13C-29.6932 12.13 -29.1132 11.88 -28.6332 11.57L-28.9632 10.97C-29.3632 11.24 -29.7932 11.4 -30.3232 11.4C-31.3532 11.4 -32.0632 10.66 -32.1232 9.5H-28.4632C-28.4432 9.37 -28.4232 9.18 -28.4232 8.98C-28.4232 7.43 -29.2032 6.43 -30.5832 6.43C-31.8432 6.43 -33.0332 7.53 -33.0332 9.29C-33.0332 11.08 -31.8732 12.13 -30.4332 12.13ZM-32.1332 8.84C-32.0232 7.78 -31.3432 7.16 -30.5732 7.16C-29.7232 7.16 -29.2232 7.75 -29.2232 8.84H-32.1332ZM-24.7961 12.13C-24.0561 12.13 -23.4761 11.88 -22.9961 11.57L-23.3261 10.97C-23.7261 11.24 -24.1561 11.4 -24.6861 11.4C-25.7161 11.4 -26.4261 10.66 -26.4861 9.5H-22.8261C-22.8061 9.37 -22.7861 9.18 -22.7861 8.98C-22.7861 7.43 -23.5661 6.43 -24.9461 6.43C-26.2061 6.43 -27.3961 7.53 -27.3961 9.29C-27.3961 11.08 -26.2361 12.13 -24.7961 12.13ZM-26.4961 8.84C-26.3861 7.78 -25.7061 7.16 -24.9361 7.16C-24.0861 7.16 -23.5861 7.75 -23.5861 8.84H-26.4961ZM-17.5926 12.13C-16.3126 12.13 -15.6126 11.4 -15.6126 10.52C-15.6126 9.49 -16.4826 9.17 -17.2726 8.87C-17.8826 8.64 -18.4426 8.45 -18.4426 7.93C-18.4426 7.51 -18.1226 7.15 -17.4326 7.15C-16.9526 7.15 -16.5726 7.35 -16.2026 7.63L-15.7626 7.04C-16.1826 6.71 -16.7726 6.43 -17.4426 6.43C-18.6226 6.43 -19.3226 7.11 -19.3226 7.97C-19.3226 8.89 -18.4926 9.26 -17.7326 9.54C-17.1326 9.77 -16.4926 10.01 -16.4926 10.57C-16.4926 11.04 -16.8426 11.42 -17.5626 11.42C-18.2126 11.42 -18.7026 11.16 -19.1726 10.78L-19.6226 11.38C-19.1026 11.81 -18.3626 12.13 -17.5926 12.13ZM-12.9849 12.13C-12.3149 12.13 -11.7049 11.78 -11.1849 11.35H-11.1549L-11.0749 12H-10.3249V8.66C-10.3249 7.32 -10.8849 6.43 -12.2049 6.43C-13.0749 6.43 -13.8449 6.82 -14.3449 7.14L-13.9849 7.77C-13.5549 7.48 -12.9849 7.19 -12.3549 7.19C-11.4649 7.19 -11.2349 7.86 -11.2349 8.56C-13.5449 8.82 -14.5749 9.41 -14.5749 10.59C-14.5749 11.57 -13.8949 12.13 -12.9849 12.13ZM-12.7249 11.4C-13.2649 11.4 -13.6849 11.15 -13.6849 10.53C-13.6849 9.83 -13.0649 9.38 -11.2349 9.16V10.68C-11.7649 11.15 -12.1949 11.4 -12.7249 11.4ZM-8.49035 12H-7.58035V8.06C-7.08035 7.5 -6.62035 7.23 -6.21035 7.23C-5.52035 7.23 -5.20035 7.66 -5.20035 8.68V12H-4.29035V8.06C-3.78035 7.5 -3.34035 7.23 -2.92035 7.23C-2.23035 7.23 -1.91035 7.66 -1.91035 8.68V12H-1.00035V8.56C-1.00035 7.17 -1.53035 6.43 -2.65035 6.43C-3.31035 6.43 -3.88035 6.86 -4.44035 7.47C-4.66035 6.83 -5.11035 6.43 -5.94035 6.43C-6.59035 6.43 -7.16035 6.84 -7.63035 7.36H-7.66035L-7.74035 6.57H-8.49035V12ZM0.86746 14.29H1.77746V12.45L1.75746 11.5C2.24746 11.9 2.76746 12.13 3.25746 12.13C4.50746 12.13 5.61746 11.06 5.61746 9.2C5.61746 7.53 4.85746 6.43 3.45746 6.43C2.82746 6.43 2.21746 6.79 1.72746 7.19H1.69746L1.61746 6.57H0.86746V14.29ZM3.10746 11.37C2.74746 11.37 2.26746 11.22 1.77746 10.8V7.95C2.30746 7.46 2.77746 7.2 3.23746 7.2C4.26746 7.2 4.66746 8.01 4.66746 9.21C4.66746 10.56 4.00746 11.37 3.10746 11.37ZM8.12863 12.13C8.37863 12.13 8.52863 12.1 8.65863 12.05L8.52863 11.35C8.42863 11.37 8.38863 11.37 8.33863 11.37C8.19863 11.37 8.07863 11.26 8.07863 10.98V4.04H7.16863V10.92C7.16863 11.69 7.44863 12.13 8.12863 12.13ZM12.3102 12.13C13.0502 12.13 13.6302 11.88 14.1102 11.57L13.7802 10.97C13.3802 11.24 12.9502 11.4 12.4202 11.4C11.3902 11.4 10.6802 10.66 10.6202 9.5H14.2802C14.3002 9.37 14.3202 9.18 14.3202 8.98C14.3202 7.43 13.5402 6.43 12.1602 6.43C10.9002 6.43 9.7102 7.53 9.7102 9.29C9.7102 11.08 10.8702 12.13 12.3102 12.13ZM10.6102 8.84C10.7202 7.78 11.4002 7.16 12.1702 7.16C13.0202 7.16 13.5202 7.75 13.5202 8.84H10.6102ZM19.5136 12.13C20.7936 12.13 21.4936 11.4 21.4936 10.52C21.4936 9.49 20.6236 9.17 19.8336 8.87C19.2236 8.64 18.6636 8.45 18.6636 7.93C18.6636 7.51 18.9836 7.15 19.6736 7.15C20.1536 7.15 20.5336 7.35 20.9036 7.63L21.3436 7.04C20.9236 6.71 20.3336 6.43 19.6636 6.43C18.4836 6.43 17.7836 7.11 17.7836 7.97C17.7836 8.89 18.6136 9.26 19.3736 9.54C19.9736 9.77 20.6136 10.01 20.6136 10.57C20.6136 11.04 20.2636 11.42 19.5436 11.42C18.8936 11.42 18.4036 11.16 17.9336 10.78L17.4836 11.38C18.0036 11.81 18.7436 12.13 19.5136 12.13ZM22.8714 12H23.7814V8.06C24.2814 7.5 24.7414 7.23 25.1514 7.23C25.8414 7.23 26.1614 7.66 26.1614 8.68V12H27.0714V8.06C27.5814 7.5 28.0214 7.23 28.4414 7.23C29.1314 7.23 29.4514 7.66 29.4514 8.68V12H30.3614V8.56C30.3614 7.17 29.8314 6.43 28.7114 6.43C28.0514 6.43 27.4814 6.86 26.9214 7.47C26.7014 6.83 26.2514 6.43 25.4214 6.43C24.7714 6.43 24.2014 6.84 23.7314 7.36H23.7014L23.6214 6.57H22.8714V12ZM33.4792 12.13C34.1492 12.13 34.7592 11.78 35.2792 11.35H35.3092L35.3892 12H36.1392V8.66C36.1392 7.32 35.5792 6.43 34.2592 6.43C33.3892 6.43 32.6192 6.82 32.1192 7.14L32.4792 7.77C32.9092 7.48 33.4792 7.19 34.1092 7.19C34.9992 7.19 35.2292 7.86 35.2292 8.56C32.9192 8.82 31.8892 9.41 31.8892 10.59C31.8892 11.57 32.5692 12.13 33.4792 12.13ZM33.7392 11.4C33.1992 11.4 32.7792 11.15 32.7792 10.53C32.7792 9.83 33.3992 9.38 35.2292 9.16V10.68C34.6992 11.15 34.2692 11.4 33.7392 11.4ZM38.9337 12.13C39.1837 12.13 39.3337 12.1 39.4637 12.05L39.3337 11.35C39.2337 11.37 39.1937 11.37 39.1437 11.37C39.0037 11.37 38.8837 11.26 38.8837 10.98V4.04H37.9737V10.92C37.9737 11.69 38.2537 12.13 38.9337 12.13ZM41.8853 12.13C42.1353 12.13 42.2853 12.1 42.4153 12.05L42.2853 11.35C42.1853 11.37 42.1453 11.37 42.0953 11.37C41.9553 11.37 41.8353 11.26 41.8353 10.98V4.04H40.9253V10.92C40.9253 11.69 41.2053 12.13 41.8853 12.13ZM-40.1757 27.13C-39.8457 27.13 -39.4857 27.03 -39.1757 26.93L-39.3557 26.25C-39.5357 26.32 -39.7857 26.39 -39.9757 26.39C-40.6057 26.39 -40.8157 26.01 -40.8157 25.34V22.31H-39.3457V21.57H-40.8157V20.04H-41.5757L-41.6857 21.57L-42.5357 21.62V22.31H-41.7257V25.32C-41.7257 26.4 -41.3357 27.13 -40.1757 27.13ZM-36.0526 27.13C-34.7226 27.13 -33.5326 26.09 -33.5326 24.29C-33.5326 22.48 -34.7226 21.43 -36.0526 21.43C-37.3826 21.43 -38.5726 22.48 -38.5726 24.29C-38.5726 26.09 -37.3826 27.13 -36.0526 27.13ZM-36.0526 26.37C-36.9926 26.37 -37.6226 25.54 -37.6226 24.29C-37.6226 23.04 -36.9926 22.19 -36.0526 22.19C-35.1126 22.19 -34.4726 23.04 -34.4726 24.29C-34.4726 25.54 -35.1126 26.37 -36.0526 26.37ZM-30.4737 27.13C-30.1437 27.13 -29.7837 27.03 -29.4737 26.93L-29.6537 26.25C-29.8337 26.32 -30.0837 26.39 -30.2737 26.39C-30.9037 26.39 -31.1137 26.01 -31.1137 25.34V22.31H-29.6437V21.57H-31.1137V20.04H-31.8737L-31.9837 21.57L-32.8337 21.62V22.31H-32.0237V25.32C-32.0237 26.4 -31.6337 27.13 -30.4737 27.13ZM-26.2707 27.13C-25.5307 27.13 -24.9507 26.88 -24.4707 26.57L-24.8007 25.97C-25.2007 26.24 -25.6307 26.4 -26.1607 26.4C-27.1907 26.4 -27.9007 25.66 -27.9607 24.5H-24.3007C-24.2807 24.37 -24.2607 24.18 -24.2607 23.98C-24.2607 22.43 -25.0407 21.43 -26.4207 21.43C-27.6807 21.43 -28.8707 22.53 -28.8707 24.29C-28.8707 26.08 -27.7107 27.13 -26.2707 27.13ZM-27.9707 23.84C-27.8607 22.78 -27.1807 22.16 -26.4107 22.16C-25.5607 22.16 -25.0607 22.75 -25.0607 23.84H-27.9707ZM-18.0972 27.13C-16.8472 27.13 -15.7372 26.06 -15.7372 24.19C-15.7372 22.53 -16.4972 21.43 -17.9072 21.43C-18.5072 21.43 -19.1172 21.77 -19.6072 22.2L-19.5772 21.22V19.04H-20.4872V27H-19.7572L-19.6772 26.44H-19.6372C-19.1672 26.87 -18.5972 27.13 -18.0972 27.13ZM-18.2472 26.37C-18.6072 26.37 -19.0972 26.22 -19.5772 25.8V22.95C-19.0572 22.46 -18.5772 22.2 -18.1172 22.2C-17.0872 22.2 -16.6872 23.01 -16.6872 24.21C-16.6872 25.56 -17.3472 26.37 -18.2472 26.37ZM-13.1118 27.13C-12.4418 27.13 -11.8318 26.78 -11.3118 26.35H-11.2818L-11.2018 27H-10.4518V23.66C-10.4518 22.32 -11.0118 21.43 -12.3318 21.43C-13.2018 21.43 -13.9718 21.82 -14.4718 22.14L-14.1118 22.77C-13.6818 22.48 -13.1118 22.19 -12.4818 22.19C-11.5918 22.19 -11.3618 22.86 -11.3618 23.56C-13.6718 23.82 -14.7018 24.41 -14.7018 25.59C-14.7018 26.57 -14.0218 27.13 -13.1118 27.13ZM-12.8518 26.4C-13.3918 26.4 -13.8118 26.15 -13.8118 25.53C-13.8118 24.83 -13.1918 24.38 -11.3618 24.16V25.68C-11.8918 26.15 -12.3218 26.4 -12.8518 26.4ZM-6.7873 29.5C-5.1073 29.5 -4.0373 28.63 -4.0373 27.62C-4.0373 26.73 -4.6773 26.33 -5.9373 26.33H-6.9973C-7.7273 26.33 -7.9473 26.09 -7.9473 25.74C-7.9473 25.44 -7.7973 25.26 -7.5973 25.09C-7.3573 25.21 -7.0573 25.28 -6.7873 25.28C-5.6873 25.28 -4.8073 24.55 -4.8073 23.39C-4.8073 22.92 -4.9873 22.52 -5.2473 22.27H-4.1373V21.57H-6.0273C-6.2173 21.5 -6.4873 21.43 -6.7873 21.43C-7.8873 21.43 -8.8273 22.18 -8.8273 23.37C-8.8273 24.02 -8.4773 24.54 -8.1173 24.83V24.87C-8.3973 25.07 -8.7273 25.43 -8.7273 25.88C-8.7273 26.31 -8.5173 26.6 -8.2273 26.77V26.81C-8.7373 27.14 -9.0273 27.58 -9.0273 28.04C-9.0273 28.98 -8.1173 29.5 -6.7873 29.5ZM-6.7873 24.66C-7.4173 24.66 -7.9473 24.16 -7.9473 23.37C-7.9473 22.57 -7.4273 22.1 -6.7873 22.1C-6.1473 22.1 -5.6273 22.58 -5.6273 23.37C-5.6273 24.16 -6.1673 24.66 -6.7873 24.66ZM-6.6573 28.88C-7.6373 28.88 -8.2273 28.5 -8.2273 27.92C-8.2273 27.6 -8.0673 27.28 -7.6773 27C-7.4373 27.06 -7.1773 27.09 -6.9773 27.09H-6.0373C-5.3173 27.09 -4.9273 27.26 -4.9273 27.76C-4.9273 28.33 -5.6173 28.88 -6.6573 28.88ZM1.28379 29.5C2.96379 29.5 4.03379 28.63 4.03379 27.62C4.03379 26.73 3.39379 26.33 2.13379 26.33H1.07379C0.343791 26.33 0.123791 26.09 0.123791 25.74C0.123791 25.44 0.273791 25.26 0.473791 25.09C0.713791 25.21 1.01379 25.28 1.28379 25.28C2.38379 25.28 3.26379 24.55 3.26379 23.39C3.26379 22.92 3.08379 22.52 2.82379 22.27H3.93379V21.57H2.04379C1.85379 21.5 1.58379 21.43 1.28379 21.43C0.183791 21.43 -0.756209 22.18 -0.756209 23.37C-0.756209 24.02 -0.406209 24.54 -0.0462094 24.83V24.87C-0.326209 25.07 -0.656209 25.43 -0.656209 25.88C-0.656209 26.31 -0.446209 26.6 -0.156209 26.77V26.81C-0.666209 27.14 -0.956209 27.58 -0.956209 28.04C-0.956209 28.98 -0.0462094 29.5 1.28379 29.5ZM1.28379 24.66C0.653791 24.66 0.123791 24.16 0.123791 23.37C0.123791 22.57 0.643791 22.1 1.28379 22.1C1.92379 22.1 2.44379 22.58 2.44379 23.37C2.44379 24.16 1.90379 24.66 1.28379 24.66ZM1.41379 28.88C0.433791 28.88 -0.156209 28.5 -0.156209 27.92C-0.156209 27.6 0.00379059 27.28 0.393791 27C0.633791 27.06 0.893791 27.09 1.09379 27.09H2.03379C2.75379 27.09 3.14379 27.26 3.14379 27.76C3.14379 28.33 2.45379 28.88 1.41379 28.88ZM6.76855 27.13C7.51855 27.13 8.05855 26.74 8.56855 26.15H8.59855L8.66855 27H9.42856V21.57H8.51855V25.42C7.99855 26.07 7.60855 26.34 7.04855 26.34C6.32855 26.34 6.02855 25.91 6.02855 24.9V21.57H5.11855V25.01C5.11855 26.39 5.62855 27.13 6.76855 27.13ZM13.5028 27.13C14.1528 27.13 14.7728 26.88 15.2628 26.44L14.8628 25.83C14.5228 26.14 14.0828 26.37 13.5828 26.37C12.5828 26.37 11.9028 25.54 11.9028 24.29C11.9028 23.04 12.6228 22.19 13.6128 22.19C14.0428 22.19 14.3728 22.39 14.6928 22.67L15.1628 22.07C14.7728 21.73 14.2828 21.43 13.5728 21.43C12.1828 21.43 10.9528 22.48 10.9528 24.29C10.9528 26.09 12.0628 27.13 13.5028 27.13ZM18.4465 27.13C19.0965 27.13 19.7165 26.88 20.2065 26.44L19.8065 25.83C19.4665 26.14 19.0265 26.37 18.5265 26.37C17.5265 26.37 16.8465 25.54 16.8465 24.29C16.8465 23.04 17.5665 22.19 18.5565 22.19C18.9865 22.19 19.3165 22.39 19.6365 22.67L20.1065 22.07C19.7165 21.73 19.2265 21.43 18.5165 21.43C17.1265 21.43 15.8965 22.48 15.8965 24.29C15.8965 26.09 17.0065 27.13 18.4465 27.13ZM21.4944 27H22.4044V21.57H21.4944V27ZM21.9544 20.45C22.3144 20.45 22.5644 20.21 22.5644 19.84C22.5644 19.49 22.3144 19.25 21.9544 19.25C21.5944 19.25 21.3444 19.49 21.3444 19.84C21.3444 20.21 21.5944 20.45 21.9544 20.45ZM26.8346 27H27.7446V22.31H28.8946V21.57H27.7446V20.71C27.7446 20.01 27.9946 19.64 28.5146 19.64C28.7046 19.64 28.9246 19.69 29.1246 19.78L29.3246 19.09C29.0746 18.98 28.7446 18.91 28.4146 18.91C27.3346 18.91 26.8346 19.6 26.8346 20.7V21.57L26.0946 21.62V22.31H26.8346V27ZM32.1192 27.13C32.8592 27.13 33.4392 26.88 33.9192 26.57L33.5892 25.97C33.1892 26.24 32.7592 26.4 32.2292 26.4C31.1992 26.4 30.4892 25.66 30.4292 24.5H34.0892C34.1092 24.37 34.1292 24.18 34.1292 23.98C34.1292 22.43 33.3492 21.43 31.9692 21.43C30.7092 21.43 29.5192 22.53 29.5192 24.29C29.5192 26.08 30.6792 27.13 32.1192 27.13ZM30.4192 23.84C30.5292 22.78 31.2092 22.16 31.9792 22.16C32.8292 22.16 33.3292 22.75 33.3292 23.84H30.4192ZM35.5663 27H36.4763V23.06C37.0263 22.51 37.4063 22.23 37.9663 22.23C38.6863 22.23 38.9963 22.66 38.9963 23.68V27H39.9063V23.56C39.9063 22.17 39.3863 21.43 38.2463 21.43C37.5063 21.43 36.9463 21.84 36.4263 22.35H36.3963L36.3163 21.57H35.5663V27ZM42.2496 27.13C42.6096 27.13 42.9096 26.85 42.9096 26.44C42.9096 26.02 42.6096 25.73 42.2496 25.73C41.8896 25.73 41.5896 26.02 41.5896 26.44C41.5896 26.85 41.8896 27.13 42.2496 27.13ZM45.1328 27.13C45.4928 27.13 45.7928 26.85 45.7928 26.44C45.7928 26.02 45.4928 25.73 45.1328 25.73C44.7728 25.73 44.4728 26.02 44.4728 26.44C44.4728 26.85 44.7728 27.13 45.1328 27.13ZM48.016 27.13C48.376 27.13 48.676 26.85 48.676 26.44C48.676 26.02 48.376 25.73 48.016 25.73C47.656 25.73 47.356 26.02 47.356 26.44C47.356 26.85 47.656 27.13 48.016 27.13Z" fill="#718596"/>
<g filter="url(#filter0_d)">
<rect width="375" height="80" transform="translate(-180 -21)" fill="white"/>
<g filter="url(#filter1_d)">
<rect x="-180" y="-21" width="375" height="80" fill="white"/>
</g>
<path d="M13.8762 1.02411C14.57 0.898601 15.2786 1.14764 15.7413 1.67959L16.9145 3.02835C17.3772 3.5603 17.5256 4.29657 17.3052 4.96625L16.343 7.88928C16.2304 8.23133 16.0275 8.53663 15.7558 8.77297L7.89797 15.6079C7.06456 16.3328 5.80129 16.2448 5.07637 15.4114L1.83722 11.6875C1.1123 10.8541 1.20026 9.5908 2.03367 8.86589L9.89154 2.03097C10.1632 1.79464 10.4937 1.63605 10.8481 1.57194L13.8762 1.02411Z" stroke="#718596"/>
<circle cx="12.9569" cy="5.28615" r="2.03081" transform="rotate(-41.0173 12.9569 5.28615)" stroke="#718596"/>
<path d="M17.2616 0.95211C18.1072 0.391774 19.5731 -1.05851 18.6724 -2.37695" stroke="#718596" stroke-linecap="round"/>
</g>
</g>
<defs>
<filter id="filter0_d" x="-228" y="-45" width="471" height="176" filterUnits="userSpaceOnUse" color-interpolation-filters="sRGB">
<feFlood flood-opacity="0" result="BackgroundImageFix"/>
<feColorMatrix in="SourceAlpha" type="matrix" values="0 0 0 0 0 0 0 0 0 0 0 0 0 0 0 0 0 0 127 0"/>
<feOffset dy="24"/>
<feGaussianBlur stdDeviation="24"/>
<feColorMatrix type="matrix" values="0 0 0 0 0 0 0 0 0 0 0 0 0 0 0 0 0 0 0.08 0"/>
<feBlend mode="normal" in2="BackgroundImageFix" result="effect1_dropShadow"/>
<feBlend mode="normal" in="SourceGraphic" in2="effect1_dropShadow" result="shape"/>
</filter>
<filter id="filter1_d" x="-208" y="-57" width="431" height="136" filterUnits="userSpaceOnUse" color-interpolation-filters="sRGB">
<feFlood flood-opacity="0" result="BackgroundImageFix"/>
<feColorMatrix in="SourceAlpha" type="matrix" values="0 0 0 0 0 0 0 0 0 0 0 0 0 0 0 0 0 0 127 0"/>
<feOffset dy="-8"/>
<feGaussianBlur stdDeviation="14"/>
<feColorMatrix type="matrix" values="0 0 0 0 0 0 0 0 0 0 0 0 0 0 0 0 0 0 0.08 0"/>
<feBlend mode="normal" in2="BackgroundImageFix" result="effect1_dropShadow"/>
<feBlend mode="normal" in="SourceGraphic" in2="effect1_dropShadow" result="shape"/>
</filter>
<clipPath id="clip0">
<rect width="375" height="811" fill="white" transform="translate(-180 -752)"/>
</clipPath>
</defs>
</svg>
