<svg width="14" height="20" viewBox="0 0 14 20" fill="none" xmlns="http://www.w3.org/2000/svg">
<path d="M13.3125 11.0626C13.7708 10.5376 14 9.91687 14 9.20012C14 8.55014 13.7622 7.98772 13.2882 7.51248C12.8132 7.03727 12.2508 6.7998 11.6008 6.7998H8.13845C8.17172 6.68317 8.20508 6.58317 8.23836 6.49985C8.27132 6.41654 8.31765 6.32477 8.37574 6.22477C8.43388 6.12473 8.4757 6.04969 8.50061 5.99978C8.65056 5.7166 8.76536 5.48312 8.8446 5.29993C8.92371 5.1164 9.00247 4.8665 9.08189 4.54983C9.16118 4.23333 9.20059 3.91653 9.20059 3.59985C9.20059 3.39995 9.19818 3.2373 9.19424 3.11239C9.19034 2.9874 9.16911 2.79984 9.13194 2.5498C9.0942 2.2999 9.04411 2.09154 8.98177 1.92495C8.91916 1.75832 8.81907 1.57067 8.68182 1.36249C8.54426 1.15391 8.37767 0.9854 8.18166 0.856157C7.98569 0.727002 7.73579 0.618686 7.43164 0.531255C7.12718 0.443735 6.78363 0.399998 6.40006 0.399998C6.18343 0.399998 5.99609 0.479198 5.8376 0.637556C5.67097 0.804188 5.52907 1.0125 5.41253 1.26241C5.2958 1.51244 5.2145 1.72912 5.16862 1.91252C5.12278 2.09583 5.07063 2.35007 5.01254 2.67497C4.93728 3.02514 4.88128 3.27705 4.84354 3.43121C4.80611 3.58536 4.73299 3.78742 4.62476 4.03736C4.51632 4.28749 4.38729 4.48735 4.23725 4.63743C3.96231 4.91238 3.54152 5.41241 2.97473 6.13734C2.56629 6.6706 2.14551 7.17474 1.7122 7.64977C1.27881 8.12489 0.962179 8.37068 0.762229 8.38736C0.554048 8.404 0.374851 8.48942 0.224812 8.64366C0.0747726 8.79781 -0.000225067 8.97911 -0.000225067 9.18738V17.1998C-0.000225067 17.4165 0.0788879 17.6018 0.237246 17.756C0.395516 17.9103 0.583032 17.9915 0.799706 17.9999C1.09133 18.0083 1.74968 18.1914 2.77473 18.5501C3.41631 18.7664 3.91831 18.9312 4.28082 19.0436C4.64324 19.1559 5.14984 19.2768 5.79933 19.4062C6.44945 19.5353 7.04934 19.6 7.59919 19.6H7.81175H8.76181H9.21171C10.3203 19.5834 11.1408 19.2583 11.6743 18.6251C12.1575 18.05 12.3615 17.2958 12.2868 16.3625C12.6117 16.0542 12.8369 15.6627 12.9617 15.1876C13.1032 14.6795 13.1032 14.192 12.9617 13.7254C13.345 13.2171 13.5242 12.6462 13.499 12.0129C13.5001 11.746 13.4377 11.4294 13.3125 11.0626Z" fill="white"/>
</svg>
