<svg width="21" height="20" viewBox="0 0 21 20" fill="none" xmlns="http://www.w3.org/2000/svg">
<rect width="21" height="20" fill="#E5E5E5"/>
<g clip-path="url(#clip0)">
<rect width="375" height="811" transform="translate(-259 -749)" fill="#F9FAFC"/>
<rect x="-259" y="-616" width="375" height="679" fill="white"/>
<path d="M-2 15H-1.07V11.71H1.73V10.93H-1.07V8.45H2.23V7.66H-2V15ZM3.31297 15H4.22297V11.51C4.58297 10.58 5.14297 10.26 5.59297 10.26C5.81297 10.26 5.94297 10.28 6.12297 10.35L6.29297 9.55C6.12297 9.46 5.95297 9.43 5.71297 9.43C5.10297 9.43 4.55297 9.87 4.17297 10.56H4.14297L4.06297 9.57H3.31297V15ZM9.3725 15.13C10.1125 15.13 10.6925 14.88 11.1725 14.57L10.8425 13.97C10.4425 14.24 10.0125 14.4 9.4825 14.4C8.4525 14.4 7.7425 13.66 7.6825 12.5H11.3425C11.3625 12.37 11.3825 12.18 11.3825 11.98C11.3825 10.43 10.6025 9.43 9.2225 9.43C7.9625 9.43 6.7725 10.53 6.7725 12.29C6.7725 14.08 7.9325 15.13 9.3725 15.13ZM7.6725 11.84C7.7825 10.78 8.4625 10.16 9.2325 10.16C10.0825 10.16 10.5825 10.75 10.5825 11.84H7.6725ZM15.0096 15.13C15.7496 15.13 16.3296 14.88 16.8096 14.57L16.4796 13.97C16.0796 14.24 15.6496 14.4 15.1196 14.4C14.0896 14.4 13.3796 13.66 13.3196 12.5H16.9796C16.9996 12.37 17.0196 12.18 17.0196 11.98C17.0196 10.43 16.2396 9.43 14.8596 9.43C13.5996 9.43 12.4096 10.53 12.4096 12.29C12.4096 14.08 13.5696 15.13 15.0096 15.13ZM13.3096 11.84C13.4196 10.78 14.0996 10.16 14.8696 10.16C15.7196 10.16 16.2196 10.75 16.2196 11.84H13.3096ZM22.213 15.13C23.493 15.13 24.193 14.4 24.193 13.52C24.193 12.49 23.323 12.17 22.533 11.87C21.923 11.64 21.363 11.45 21.363 10.93C21.363 10.51 21.683 10.15 22.373 10.15C22.853 10.15 23.233 10.35 23.603 10.63L24.043 10.04C23.623 9.71 23.033 9.43 22.363 9.43C21.183 9.43 20.483 10.11 20.483 10.97C20.483 11.89 21.313 12.26 22.073 12.54C22.673 12.77 23.313 13.01 23.313 13.57C23.313 14.04 22.963 14.42 22.243 14.42C21.593 14.42 21.103 14.16 20.633 13.78L20.183 14.38C20.703 14.81 21.443 15.13 22.213 15.13ZM26.8208 15.13C27.4908 15.13 28.1008 14.78 28.6208 14.35H28.6508L28.7308 15H29.4808V11.66C29.4808 10.32 28.9208 9.43 27.6008 9.43C26.7308 9.43 25.9608 9.82 25.4608 10.14L25.8208 10.77C26.2508 10.48 26.8208 10.19 27.4508 10.19C28.3408 10.19 28.5708 10.86 28.5708 11.56C26.2608 11.82 25.2308 12.41 25.2308 13.59C25.2308 14.57 25.9108 15.13 26.8208 15.13ZM27.0808 14.4C26.5408 14.4 26.1208 14.15 26.1208 13.53C26.1208 12.83 26.7408 12.38 28.5708 12.16V13.68C28.0408 14.15 27.6108 14.4 27.0808 14.4ZM31.3153 15H32.2253V11.06C32.7253 10.5 33.1853 10.23 33.5953 10.23C34.2853 10.23 34.6053 10.66 34.6053 11.68V15H35.5153V11.06C36.0253 10.5 36.4653 10.23 36.8853 10.23C37.5753 10.23 37.8953 10.66 37.8953 11.68V15H38.8053V11.56C38.8053 10.17 38.2753 9.43 37.1553 9.43C36.4953 9.43 35.9253 9.86 35.3653 10.47C35.1453 9.83 34.6953 9.43 33.8653 9.43C33.2153 9.43 32.6453 9.84 32.1753 10.36H32.1453L32.0653 9.57H31.3153V15ZM40.6731 17.29H41.5831V15.45L41.5631 14.5C42.0531 14.9 42.5731 15.13 43.0631 15.13C44.3131 15.13 45.4231 14.06 45.4231 12.2C45.4231 10.53 44.6631 9.43 43.2631 9.43C42.6331 9.43 42.0231 9.79 41.5331 10.19H41.5031L41.4231 9.57H40.6731V17.29ZM42.9131 14.37C42.5531 14.37 42.0731 14.22 41.5831 13.8V10.95C42.1131 10.46 42.5831 10.2 43.0431 10.2C44.0731 10.2 44.4731 11.01 44.4731 12.21C44.4731 13.56 43.8131 14.37 42.9131 14.37ZM47.9343 15.13C48.1843 15.13 48.3343 15.1 48.4643 15.05L48.3343 14.35C48.2343 14.37 48.1943 14.37 48.1443 14.37C48.0043 14.37 47.8843 14.26 47.8843 13.98V7.04H46.9743V13.92C46.9743 14.69 47.2543 15.13 47.9343 15.13ZM52.1159 15.13C52.8559 15.13 53.4359 14.88 53.9159 14.57L53.5859 13.97C53.1859 14.24 52.7559 14.4 52.2259 14.4C51.1959 14.4 50.4859 13.66 50.4259 12.5H54.0859C54.1059 12.37 54.1259 12.18 54.1259 11.98C54.1259 10.43 53.3459 9.43 51.9659 9.43C50.7059 9.43 49.5159 10.53 49.5159 12.29C49.5159 14.08 50.6759 15.13 52.1159 15.13ZM50.4159 11.84C50.5259 10.78 51.2059 10.16 51.9759 10.16C52.8259 10.16 53.3259 10.75 53.3259 11.84H50.4159ZM59.3193 15.13C60.5993 15.13 61.2993 14.4 61.2993 13.52C61.2993 12.49 60.4293 12.17 59.6393 11.87C59.0293 11.64 58.4693 11.45 58.4693 10.93C58.4693 10.51 58.7893 10.15 59.4793 10.15C59.9593 10.15 60.3393 10.35 60.7093 10.63L61.1493 10.04C60.7293 9.71 60.1393 9.43 59.4693 9.43C58.2893 9.43 57.5893 10.11 57.5893 10.97C57.5893 11.89 58.4193 12.26 59.1793 12.54C59.7793 12.77 60.4193 13.01 60.4193 13.57C60.4193 14.04 60.0693 14.42 59.3493 14.42C58.6993 14.42 58.2093 14.16 57.7393 13.78L57.2893 14.38C57.8093 14.81 58.5493 15.13 59.3193 15.13ZM62.677 15H63.587V11.06C64.087 10.5 64.547 10.23 64.957 10.23C65.647 10.23 65.967 10.66 65.967 11.68V15H66.877V11.06C67.387 10.5 67.827 10.23 68.247 10.23C68.937 10.23 69.257 10.66 69.257 11.68V15H70.167V11.56C70.167 10.17 69.637 9.43 68.517 9.43C67.857 9.43 67.287 9.86 66.727 10.47C66.507 9.83 66.057 9.43 65.227 9.43C64.577 9.43 64.007 9.84 63.537 10.36H63.507L63.427 9.57H62.677V15ZM73.2848 15.13C73.9548 15.13 74.5648 14.78 75.0848 14.35H75.1148L75.1948 15H75.9448V11.66C75.9448 10.32 75.3848 9.43 74.0648 9.43C73.1948 9.43 72.4248 9.82 71.9248 10.14L72.2848 10.77C72.7148 10.48 73.2848 10.19 73.9148 10.19C74.8048 10.19 75.0348 10.86 75.0348 11.56C72.7248 11.82 71.6948 12.41 71.6948 13.59C71.6948 14.57 72.3748 15.13 73.2848 15.13ZM73.5448 14.4C73.0048 14.4 72.5848 14.15 72.5848 13.53C72.5848 12.83 73.2048 12.38 75.0348 12.16V13.68C74.5048 14.15 74.0748 14.4 73.5448 14.4ZM78.7394 15.13C78.9894 15.13 79.1394 15.1 79.2694 15.05L79.1394 14.35C79.0394 14.37 78.9994 14.37 78.9494 14.37C78.8094 14.37 78.6894 14.26 78.6894 13.98V7.04H77.7794V13.92C77.7794 14.69 78.0594 15.13 78.7394 15.13ZM81.6909 15.13C81.9409 15.13 82.0909 15.1 82.2209 15.05L82.0909 14.35C81.9909 14.37 81.9509 14.37 81.9009 14.37C81.7609 14.37 81.6409 14.26 81.6409 13.98V7.04H80.7309V13.92C80.7309 14.69 81.0109 15.13 81.6909 15.13Z" fill="#718596"/>
<g filter="url(#filter0_d)">
<rect width="375" height="80" transform="translate(-259 -18)" fill="white"/>
<g filter="url(#filter1_d)">
<rect x="-259" y="-18" width="375" height="80" fill="white"/>
</g>
<path d="M19.639 12.3958H15.5907C14.1042 12.3949 12.8994 11.1909 12.8985 9.70449C12.8985 8.21804 14.1042 7.01413 15.5907 7.01321H19.639" stroke="#718596" stroke-linecap="round" stroke-linejoin="round"/>
<path d="M16.0486 9.64288H15.7369" stroke="#718596" stroke-linecap="round" stroke-linejoin="round"/>
<path fill-rule="evenodd" clip-rule="evenodd" d="M5.74767 1H14.3911C17.2892 1 19.6388 3.34951 19.6388 6.24766V13.4247C19.6388 16.3229 17.2892 18.6724 14.3911 18.6724H5.74767C2.84951 18.6724 0.5 16.3229 0.5 13.4247V6.24766C0.5 3.34951 2.84951 1 5.74767 1Z" stroke="#718596" stroke-linecap="round" stroke-linejoin="round"/>
<path d="M5.03561 5.53815H10.4346" stroke="#718596" stroke-linecap="round" stroke-linejoin="round"/>
</g>
</g>
<defs>
<filter id="filter0_d" x="-307" y="-42" width="471" height="176" filterUnits="userSpaceOnUse" color-interpolation-filters="sRGB">
<feFlood flood-opacity="0" result="BackgroundImageFix"/>
<feColorMatrix in="SourceAlpha" type="matrix" values="0 0 0 0 0 0 0 0 0 0 0 0 0 0 0 0 0 0 127 0"/>
<feOffset dy="24"/>
<feGaussianBlur stdDeviation="24"/>
<feColorMatrix type="matrix" values="0 0 0 0 0 0 0 0 0 0 0 0 0 0 0 0 0 0 0.08 0"/>
<feBlend mode="normal" in2="BackgroundImageFix" result="effect1_dropShadow"/>
<feBlend mode="normal" in="SourceGraphic" in2="effect1_dropShadow" result="shape"/>
</filter>
<filter id="filter1_d" x="-287" y="-54" width="431" height="136" filterUnits="userSpaceOnUse" color-interpolation-filters="sRGB">
<feFlood flood-opacity="0" result="BackgroundImageFix"/>
<feColorMatrix in="SourceAlpha" type="matrix" values="0 0 0 0 0 0 0 0 0 0 0 0 0 0 0 0 0 0 127 0"/>
<feOffset dy="-8"/>
<feGaussianBlur stdDeviation="14"/>
<feColorMatrix type="matrix" values="0 0 0 0 0 0 0 0 0 0 0 0 0 0 0 0 0 0 0.08 0"/>
<feBlend mode="normal" in2="BackgroundImageFix" result="effect1_dropShadow"/>
<feBlend mode="normal" in="SourceGraphic" in2="effect1_dropShadow" result="shape"/>
</filter>
<clipPath id="clip0">
<rect width="375" height="811" fill="white" transform="translate(-259 -749)"/>
</clipPath>
</defs>
</svg>
